<svg xmlns="http://www.w3.org/2000/svg" width="143" height="39" viewBox="0 0 143 39">
    <g fill="#7A18FF" fill-rule="evenodd">
        <path d="M27.323.015L38.4 10.355.02 19.342l12.02-14.86 8.033 4.995 7.25-9.461zm-7.56 38.652L.02 19.341l38.434 8.986-18.691 10.34zM49.852 18.521L46.52 9.265h-3.768l5.082 12.925h3.994l5.03-12.925h-3.65l-3.357 9.256M63.83 19.282c-1.951 0-3.41-1.468-3.41-3.561 0-2.094 1.459-3.561 3.41-3.561 1.95 0 3.423 1.467 3.423 3.56 0 2.094-1.473 3.562-3.424 3.562zm0-10.364c-3.995 0-6.94 2.908-6.94 6.803 0 3.894 2.945 6.802 6.94 6.802 4.007 0 6.966-2.908 6.966-6.802 0-3.895-2.96-6.803-6.967-6.803z"/>
        <path d="M84.13 9.265h-4.007l-2.76 4.015-2.774-4.015h-4.113l4.604 6.362-4.724 6.563h4.007l2.84-4.109 2.893 4.109h4.113l-4.683-6.576 4.604-6.349M107.351 19.282c-1.95 0-3.41-1.468-3.41-3.561 0-2.094 1.46-3.561 3.41-3.561 1.951 0 3.424 1.467 3.424 3.56 0 2.094-1.473 3.562-3.424 3.562zm0-10.364c-3.994 0-6.94 2.908-6.94 6.803 0 3.894 2.946 6.802 6.94 6.802 4.008 0 6.967-2.908 6.967-6.802 0-3.895-2.96-6.803-6.967-6.803zM132.976 14.817c.306-1.6 1.261-2.587 2.893-2.587 1.487 0 2.482.933 2.8 2.587h-5.693zm9.17 1.2c-.013-4.028-2.548-6.789-6.25-6.789-3.848 0-6.502 2.775-6.502 6.843s2.733 6.762 6.674 6.762c2.163 0 4.021-.614 5.48-1.96l-2.03-2.241c-.929.786-2.136 1.24-3.25 1.24-1.633 0-2.933-.814-3.305-2.68h9.116a9.89 9.89 0 0 0 .067-1.175zM127.877 14.304v8.182h-3.444v-7.068c0-1.857-.923-2.878-2.493-2.878-1.478 0-2.705.968-2.705 2.904v7.042h-3.444V9.636h3.352v1.511c.91-1.366 2.309-1.856 3.76-1.856 2.903 0 4.974 2.029 4.974 5.013M92.272 19.277c-1.963 0-3.304-1.52-3.304-3.561s1.34-3.561 3.304-3.561c2.044 0 3.317 1.587 3.317 3.56 0 1.975-1.273 3.562-3.317 3.562zm.637-10.364c-1.725 0-2.932.68-3.768 1.694V2.371l-3.45 1.88v17.933h3.383v-1.427c.836 1.04 2.07 1.76 3.849 1.76 3.542 0 6.223-2.92 6.223-6.801 0-3.882-2.68-6.803-6.237-6.803z"/>
    </g>
</svg>
