<?xml version="1.0" encoding="utf-8"?>
<!-- Generator: Adobe Illustrator 16.0.0, SVG Export Plug-In . SVG Version: 6.00 Build 0)  -->
<!DOCTYPE svg PUBLIC "-//W3C//DTD SVG 1.1//EN" "http://www.w3.org/Graphics/SVG/1.1/DTD/svg11.dtd">
<svg version="1.1" id="Layer_1" xmlns="http://www.w3.org/2000/svg"  x="0px" y="0px"
	 width="145.739px" height="39.433px" viewBox="0 0 145.739 39.433" enable-background="new 0 0 145.739 39.433"
	 xml:space="preserve">
<polygon fill="#7A18FF" points="27.998,0 20.563,9.652 12.326,4.556 0,19.718 39.356,10.55 "/>
<polygon fill="#7A18FF" points="20.245,39.433 39.412,28.884 0,19.718 "/>
<polygon fill="#7A18FF" points="51.099,22.554 47.683,13.11 43.819,13.11 49.031,26.296 53.126,26.296 58.284,13.11 54.541,13.11 
	"/>
<path fill="#7A18FF" d="M65.432,23.329c-2,0-3.497-1.496-3.497-3.633s1.497-3.633,3.497-3.633s3.511,1.496,3.511,3.633
	S67.432,23.329,65.432,23.329 M65.432,12.757c-4.096,0-7.116,2.966-7.116,6.939c0,3.973,3.02,6.939,7.116,6.939
	c4.109,0,7.144-2.967,7.144-6.939C72.576,15.723,69.541,12.757,65.432,12.757"/>
<polygon fill="#7A18FF" points="86.248,13.11 82.139,13.11 79.309,17.206 76.464,13.11 72.247,13.11 76.968,19.601 72.124,26.296 
	76.233,26.296 79.145,22.104 82.112,26.296 86.33,26.296 81.527,19.587 "/>
<path fill="#7A18FF" d="M110.06,23.329c-2,0-3.498-1.496-3.498-3.633s1.498-3.633,3.498-3.633s3.51,1.496,3.51,3.633
	S112.06,23.329,110.06,23.329 M110.06,12.757c-4.096,0-7.117,2.966-7.117,6.939c0,3.973,3.021,6.939,7.117,6.939
	c4.108,0,7.144-2.967,7.144-6.939C117.204,15.723,114.168,12.757,110.06,12.757"/>
<path fill="#7A18FF" d="M136.335,18.774c0.313-1.633,1.293-2.64,2.967-2.64c1.524,0,2.545,0.952,2.871,2.64H136.335z
	 M145.739,19.999c-0.015-4.109-2.613-6.926-6.409-6.926c-3.945,0-6.667,2.83-6.667,6.98s2.804,6.898,6.845,6.898
	c2.217,0,4.123-0.625,5.619-2l-2.082-2.286c-0.953,0.803-2.191,1.266-3.334,1.266c-1.674,0-3.007-0.83-3.389-2.735h9.348
	C145.712,20.897,145.739,20.407,145.739,19.999"/>
<path fill="#7A18FF" d="M131.107,18.251v8.347h-3.531v-7.211c0-1.894-0.947-2.935-2.557-2.935c-1.516,0-2.773,0.986-2.773,2.963
	v7.183h-3.531V13.489h3.436v1.541c0.934-1.394,2.368-1.894,3.855-1.894C128.983,13.137,131.107,15.206,131.107,18.251"/>
<path fill="#7A18FF" d="M94.597,23.325c-2.014,0-3.388-1.553-3.388-3.633c0-2.084,1.374-3.635,3.388-3.635
	c2.096,0,3.402,1.62,3.402,3.635C98,21.704,96.693,23.325,94.597,23.325 M95.25,12.751c-1.769,0-3.007,0.695-3.864,1.729V6.077
	l-3.537,1.918V26.29h3.469v-1.455c0.857,1.061,2.123,1.796,3.947,1.796c3.631,0,6.381-2.979,6.381-6.938
	C101.646,15.731,98.896,12.751,95.25,12.751"/>
</svg>
